<svg id="Layer_1" data-name="Layer 1" xmlns="http://www.w3.org/2000/svg" viewBox="0 0 1185.4 576.71"><defs><style>.cls-1{fill:#00aa6b;}</style></defs><path class="cls-1" d="M225.44,405.31l-88.17-86.88a6.27,6.27,0,0,1-1.87-4.55l1.87-146.46a6.28,6.28,0,0,1,6.27-6.19h75.63a6.27,6.27,0,0,1,6.27,6.27Z"/><path class="cls-1" d="M374.6,405.31H299a6.28,6.28,0,0,1-6.27-6.28V161.23l86.83,87a6.36,6.36,0,0,1,1.83,4.46l-.54,146.33A6.28,6.28,0,0,1,374.6,405.31Z"/><path class="cls-1" d="M137.35,243.39V167.81a6.27,6.27,0,0,1,6.25-6.27l78.71-.3a6.3,6.3,0,0,1,5,2.49L292.67,250l-149.06-.32A6.28,6.28,0,0,1,137.35,243.39Z"/><path class="cls-1" d="M290.69,402.88l-67.07-86.33,151.15.32a6.27,6.27,0,0,1,6.25,6.27v75.59a6.27,6.27,0,0,1-6.24,6.27l-79.13.29A6.24,6.24,0,0,1,290.69,402.88Z"/><path class="cls-1" d="M480.63,202c30.27,0,53.21,16.42,53.21,48.46,0,24.53-13.45,40.95-33.43,47.28l56.18,67.45H509.31l-49.85-64.49v64.49H422.28V202Zm-16.81,72.4c14,0,30.86-1,30.86-21.37s-16.82-21.36-30.86-21.36h-4.36v42.73Z"/><path class="cls-1" d="M588.24,319.28c0,15.63,13.06,21,22,21,11.28,0,16.22-2.18,24.72-11.28l25.32,12.66c-11.47,19.19-30.06,26.51-52.61,26.51-30.66,0-55.78-24.14-55.78-53.61,0-29.67,25.12-53.81,55.78-53.81,30.85,0,54.39,18.21,54.39,53.81a38.16,38.16,0,0,1-.19,4.75Zm39.57-19.38c-1.59-10.69-8.91-16.43-19.19-16.43-12.07,0-18.79,7.13-19.39,16.43Z"/><path class="cls-1" d="M746.09,312.16l53,53H754l-40.56-40.55v40.55h-35V201.85l33.28,24.2,1.74,73.05,35.41-35.41h45.5Z"/><path class="cls-1" d="M844.41,260.72c13.64,0,24.92,4.56,33.23,12.66v-9.69h35V365.17H878V353.7h-.39a45,45,0,0,1-33.23,14.44c-29.68,0-50.44-23.94-50.44-53.61S814.73,260.72,844.41,260.72Zm10.48,77.55c13.65,0,23.54-9.89,23.54-23.74,0-14-10.49-23.93-23.54-23.93-13.25,0-23.74,9.89-23.74,23.93C831.15,328.38,840.65,338.27,854.89,338.27Z"/><path class="cls-1" d="M936.39,263.69h35v10.69h.39c7.92-7.92,18-13.66,29.09-13.66,18.59,0,44.5,9.31,44.5,37.59v66.86h-35V307.81c0-10.09-6.92-19.79-18.2-19.79-10.49,0-20.77,9.7-20.77,19.79v57.36h-35Z"/><polygon class="cls-1" points="150.04 131.23 150.04 134.82 147.24 131.22 150.04 131.23"/><polygon class="cls-1" points="147.24 131.22 150.04 131.23 150.04 134.82 147.24 131.22"/></svg>